Coordinates
version=1
nRows=24
nColumns=24
inDegrees=yes

Units are S.I. units (second, meters, Newtons, ...)
Angles are in degrees.

endheader
time	pelvis_tilt	pelvis_list	pelvis_rotation	pelvis_tx	pelvis_ty	pelvis_tz	hip_flexion_r	hip_adduction_r	hip_rotation_r	knee_angle_r	ankle_angle_r	subtalar_angle_r	mtp_angle_r	hip_flexion_l	hip_adduction_l	hip_rotation_l	knee_angle_l	ankle_angle_l	subtalar_angle_l	mtp_angle_l	lumbar_extension	lumbar_bending	lumbar_rotation
      0.77083333	      0.35385781	     -1.25374734	      3.39233066	     -0.34515074	      1.08777366	      0.30925083	      5.79245209	      4.87323149	      1.66286445	    -12.36899621	      3.66754934	    -13.00015571	      4.72329058	     13.96608417	     -5.77624671	     -3.42517525	    -66.79019818	      9.70335842	      2.82530718	      5.04996461	    -13.80680413	      6.94400245	     -0.12727148
      0.77500000	      0.38309487	     -1.11616672	      3.28894099	     -0.33992186	      1.08850700	      0.30970579	      5.30419961	      4.76036559	      1.75025322	    -12.07549813	      3.76756757	    -12.90770506	      4.69010229	     14.40347225	     -5.63567372	     -3.58762940	    -66.35027103	     10.00434868	      3.06188993	      5.06716130	    -13.81310584	      6.71587572	     -0.00365177
      0.77916667	      0.39522830	     -0.98457337	      3.18317543	     -0.33468398	      1.08915957	      0.31015084	      4.83763341	      4.65044828	      1.82350447	    -11.78679752	      3.84446789	    -12.82112297	      4.67081125	     14.85224082	     -5.50348398	     -3.76044397	    -65.87730025	     10.30235240	      3.27272708	      5.08232643	    -13.78992815	      6.48131818	      0.07550894
      0.78333333	      0.43904527	     -0.87232175	      3.06804594	     -0.32947061	      1.08981032	      0.31060237	      4.33368560	      4.56359470	      1.92226960	    -11.48668548	      3.96205307	    -12.73944724	      4.63977580	     15.25753332	     -5.40362978	     -3.94836898	    -65.36460829	     10.58276968	      3.56785488	      5.10444342	    -13.80510951	      6.29347190	      0.25286547
      0.78750000	      0.46360670	     -0.75175727	      2.94939069	     -0.32426416	      1.09040458	      0.31106008	      3.85341349	      4.46467326	      2.01691919	    -11.18800880	      4.03959534	    -12.66093370	      4.61727885	     15.67352197	     -5.29220366	     -4.14146399	    -64.81167915	     10.84688278	      3.81242569	      5.12367362	    -13.80621395	      6.06114640	      0.36222960
      0.79166667	      0.51035153	     -0.64363945	      2.82904281	     -0.31907721	      1.09098853	      0.31151677	      3.34504172	      4.38039753	      2.12791301	    -10.87842208	      4.15098558	    -12.59112548	      4.57683872	     16.05808274	     -5.20176092	     -4.34282760	    -64.22232064	     11.08830308	      4.10312739	      5.15401063	    -13.83591916	      5.85917692	      0.57923400
      0.79583333	      0.52622044	     -0.51036426	      2.69761664	     -0.31387271	      1.09150740	      0.31196044	      2.87950134	      4.26159532	      2.22742887	    -10.59187847	      4.23861791	    -12.52072981	      4.54972978	     16.45373934	     -5.07461621	     -4.54946505	    -63.57518504	     11.30496042	      4.34765116	      5.17750961	    -13.82054466	      5.63921693	      0.69135383
      0.80000000	      0.56729489	     -0.40727228	      2.57143577	     -0.30869972	      1.09199600	      0.31240097	      2.37958279	      4.17702630	      2.34116506	    -10.28158937	      4.34197480	    -12.44990733	      4.50658271	     16.82424362	     -4.98995116	     -4.75625139	    -62.91351923	     11.51816931	      4.62999011	      5.21303588	    -13.85003352	      5.42861066	      0.89172623
      0.80416667	      0.58277535	     -0.30063993	      2.44208259	     -0.30352394	      1.09239825	      0.31282361	      1.91607217	      4.08387356	      2.44658136	     -9.99069084	      4.44218494	    -12.38277613	      4.46533687	     17.21040298	     -4.89656081	     -4.96305872	    -62.21168730	     11.70549119	      4.89379377	      5.24796510	    -13.84116204	      5.22865363	      1.04279911
      0.80833333	      0.61051615	     -0.19407343	      2.31199995	     -0.29836106	      1.09278886	      0.31324250	      1.43910064	      3.98892486	      2.55156775	     -9.69604556	      4.54231944	    -12.31627142	      4.42687425	     17.57087085	     -4.80402398	     -5.16930711	    -61.46920907	     11.87305866	      5.15138611	      5.28252630	    -13.84820703	      5.02980859	      1.18613202
      0.81250000	      0.62436626	     -0.07492903	      2.17641204	     -0.29320703	      1.09312572	      0.31364344	      0.98685393	      3.87560223	      2.64595762	     -9.42138270	      4.63832462	    -12.24679302	      4.40246421	     17.93062078	     -4.69163252	     -5.37703691	    -60.68114520	     12.01515965	      5.38689364	      5.30672088	    -13.83763348	      4.82749390	      1.28416082
      0.81666667	      0.65020529	      0.02310548	      2.04753428	     -0.28806027	      1.09342394	      0.31402136	      0.51797615	      3.78358198	      2.74431325	     -9.13619632	      4.74435292	    -12.17416853	      4.37822615	     18.27222695	     -4.60311768	     -5.57420506	    -59.87023243	     12.14770170	      5.62507433	      5.33133067	    -13.84388849	      4.64517909	      1.41366748
      0.82083333	      0.68443459	      0.11491306	      1.91967534	     -0.28292627	      1.09368930	      0.31440269	      0.03775604	      3.69761853	      2.84977474	     -8.84390998	      4.86836842	    -12.09953573	      4.33993603	     18.59653354	     -4.52355058	     -5.77046001	    -59.02994670	     12.25906820	      5.84876548	      5.36678556	    -13.87007879	      4.45246781	      1.61031694
      0.82500000	      0.68837672	      0.21172563	      1.79396355	     -0.27780214	      1.09386525	      0.31474084	     -0.39701718	      3.59990400	      2.93283844	     -8.57548226	      4.96313637	    -12.02814925	      4.31912714	     18.94141913	     -4.42646404	     -5.95126704	    -58.15076484	     12.35115387	      6.03888409	      5.38705077	    -13.85208096	      4.28115700	      1.69068691
      0.82916667	      0.70868810	      0.30224089	      1.66879235	     -0.27267809	      1.09402556	      0.31507514	     -0.85006058	      3.50810862	      3.02076746	     -8.30768099	      5.08409149	    -11.95170197	      4.29465839	     19.25535662	     -4.33747916	     -6.13029607	    -57.23832189	     12.42504385	      6.21255914	      5.40975967	    -13.85800498	      4.10853592	      1.81693159
      0.83333333	      0.75042581	      0.38656020	      1.54798314	     -0.26758097	      1.09416600	      0.31539689	     -1.32959456	      3.42152669	      3.10902804	     -8.02815545	      5.22187848	    -11.86207079	      4.25641129	     19.53869452	     -4.25434198	     -6.30077646	    -56.30076658	     12.47803987	      6.35438261	      5.44231364	    -13.89829566	      3.93332475	      1.99485960
      0.83750000	      0.77409899	      0.46388689	      1.43085446	     -0.26248563	      1.09424469	      0.31568323	     -1.78175569	      3.33849266	      3.18590371	     -7.76332321	      5.34306578	    -11.77862939	      4.21824826	     19.82934486	     -4.17005581	     -6.45660299	    -55.32797341	     12.51641176	      6.46455877	      5.47232931	    -13.91406349	      3.78128701	      2.11475786
      0.84166667	      0.75297461	      0.53800589	      1.31809549	     -0.25737308	      1.09419356	      0.31595733	     -2.17815050	      3.25605187	      3.25532904	     -7.51563233	      5.45250082	    -11.70019324	      4.19988262	     20.15823722	     -4.08372097	     -6.59649609	    -54.32981464	     12.54454703	      6.55327770	      5.48634586	    -13.87192352	      3.63916272	      2.17118058
      0.84583333	      0.79831439	      0.60068083	      1.20744288	     -0.25231069	      1.09421261	      0.31621177	     -2.64891526	      3.18483030	      3.31965932	     -7.25683021	      5.60155826	    -11.59511315	      4.16046882	     20.40475774	     -4.00925344	     -6.73090696	    -53.30154255	     12.54463572	      6.58482588	      5.51359671	    -13.92559499	      3.50317167	      2.32343231
      0.85000000	      0.78587108	      0.65658836	      1.10195009	     -0.24722120	      1.09408576	      0.31644364	     -3.04917257	      3.11812352	      3.37894265	     -7.01668354	      5.71777835	    -11.51329640	      4.14069926	     20.70319843	     -3.93543648	     -6.84931828	    -52.24878375	     12.54711807	      6.61595586	      5.52579262	    -13.89670838	      3.38484248	      2.37552868
      0.85416667	      0.78172675	      0.70464602	      1.00030870	     -0.24214407	      1.09392009	      0.31665985	     -3.45750680	      3.05857652	      3.43740424	     -6.77758445	      5.85493248	    -11.42226688	      4.11998438	     20.98283266	     -3.86663741	     -6.95676380	    -51.17223934	     12.52804614	      6.59391345	      5.53690779	    -13.88547580	      3.27707647	      2.45115493
      0.85833333	      0.79996922	      0.74476813	      0.90778550	     -0.23708886	      1.09375073	      0.31683568	     -3.88996487	      3.00469032	      3.47469132	     -6.53722665	      6.01668031	    -11.29446627	      4.07890050	     21.22753411	     -3.79664356	     -7.03989111	    -50.06789497	     12.48596110	      6.50065534	      5.55752239	    -13.91551526	      3.17742313	      2.57772251
      0.86250000	      0.80210378	      0.77542564	      0.81513070	     -0.23202682	      1.09350792	      0.31701064	     -4.29988872	      2.96040721	      3.51355236	     -6.30679422	      6.16348895	    -11.18814793	      4.04227856	     21.47841652	     -3.73803198	     -7.12215048	    -48.94158985	     12.44662419	      6.41220709	      5.57379829	    -13.91635422	      3.09387010	      2.64677418
      0.86666667	      0.77019474	      0.79781701	      0.72296392	     -0.22695120	      1.09316122	      0.31717347	     -4.66872694	      2.92317272	      3.56519371	     -6.08760377	      6.29433839	    -11.09461680	      4.02134932	     21.75374144	     -3.68563959	     -7.19395773	    -47.79207825	     12.40919011	      6.32275289	      5.58029875	    -13.87537855	      3.01633467	      2.68370905
